# xmcd CD database file
#
# Track frame offsets:
#	150
#	24095
#	45807
#	61930
#	92435
#	114032
#	141137
#	169870
#	175227
#	200625
#	228310
#
# Disc length: 3397 seconds
#
# Revision: 0
# Processed by: cddbd v1.5.2PL0 Copyright (c) Steve Scherf et al.
# Submitted via: CDex 1.51
#
DISCID=7b0d430b
DTITLE=The Breakfast Band - Dolphin Ride
DYEAR=1982
DGENRE=Jazz
TTITLE0=Tokyo Shuffle
TTITLE1=Jazzabel
TTITLE2=Constant Spring
TTITLE3=Tuna
TTITLE4=Trinidad
TTITLE5=Hadeed
TTITLE6=L.A. 14
TTITLE7=Prelude In Steel
TTITLE8=Broadside Rhumba
TTITLE9=Dragon
TTITLE10=Dolphin Ride
EXTD=YEAR: 1982
EXTT0=
EXTT1=
EXTT2=
EXTT3=
EXTT4=
EXTT5=
EXTT6=
EXTT7=
EXTT8=
EXTT9=
EXTT10=
PLAYORDER=
